HIERARCHY
ROOT Hips
{
	OFFSET 0.000000 83.214638 0.000000
	CHANNELS 6 Xposition Yposition Zposition Xrotation Yrotation Zrotation
	JOINT Pelvis
	{
		OFFSET 0.000000 0.000000 0.000000
		CHANNELS 3 Xrotation Yrotation Zrotation
		JOINT LeftUpLeg
		{
			OFFSET 8.479700 -4.795502 -0.379100
			CHANNELS 3 Xrotation Yrotation Zrotation
			JOINT LeftLeg
			{
				OFFSET 0.024144 -32.555107 0.112900
				CHANNELS 3 Xrotation Yrotation Zrotation
				JOINT LeftFoot
				{
					OFFSET -0.024144 -32.638630 -3.012600
					CHANNELS 3 Xrotation Yrotation Zrotation
					JOINT LeftToeBase
					{
						OFFSET 0.970200 -13.225400 11.864200
						CHANNELS 3 Xrotation Yrotation Zrotation
						End Site
						{
							OFFSET 0.000000 12.319262 0.000000
						}
					}
					JOINT LFootTongue
					{
						OFFSET 1.142400 -1.059800 6.665200
						CHANNELS 3 Xrotation Yrotation Zrotation
						End Site
						{
							OFFSET 0.000000 12.319262 0.000000
						}
					}
				}
				JOINT LeftPantLeg
				{
					OFFSET 0.918482 -16.533964 -2.284700
					CHANNELS 3 Xrotation Yrotation Zrotation
					End Site
					{
						OFFSET 0.350399 24.744368 0.000000
					}
				}
			}
		}
		JOINT RightUpLeg
		{
			OFFSET -8.479700 -4.795502 -0.379100
			CHANNELS 3 Xrotation Yrotation Zrotation
			JOINT RightLeg
			{
				OFFSET -0.023144 -32.555092 0.112900
				CHANNELS 3 Xrotation Yrotation Zrotation
				JOINT RightFoot
				{
					OFFSET 0.023144 -32.638641 -3.012700
					CHANNELS 3 Xrotation Yrotation Zrotation
					JOINT RightToeBase
					{
						OFFSET -0.970200 -13.225400 11.864200
						CHANNELS 3 Xrotation Yrotation Zrotation
						End Site
						{
							OFFSET 0.000000 12.319244 0.000000
						}
					}
					JOINT RFootTongue
					{
						OFFSET -1.142200 -1.059800 6.665200
						CHANNELS 3 Xrotation Yrotation Zrotation
						End Site
						{
							OFFSET 0.000000 12.319243 0.000000
						}
					}
				}
				JOINT RightPantLeg
				{
					OFFSET -0.919482 -16.533978 -2.284800
					CHANNELS 3 Xrotation Yrotation Zrotation
					End Site
					{
						OFFSET -0.350400 24.744419 0.000000
					}
				}
			}
		}
	}
	JOINT Spine
	{
		OFFSET 0.000000 7.722000 1.166200
		CHANNELS 3 Xrotation Yrotation Zrotation
		JOINT Spine1
		{
			OFFSET 0.000000 12.024101 0.248800
			CHANNELS 3 Xrotation Yrotation Zrotation
			JOINT Spine2
			{
				OFFSET 0.000000 11.502998 -0.491200
				CHANNELS 3 Xrotation Yrotation Zrotation
				JOINT Neck
				{
					OFFSET 0.000000 18.430702 -3.123100
					CHANNELS 3 Xrotation Yrotation Zrotation
					JOINT Head
					{
						OFFSET 0.000000 9.051102 1.034000
						CHANNELS 3 Xrotation Yrotation Zrotation
						JOINT HairB
						{
							OFFSET 0.208400 24.786102 24.822300
							CHANNELS 3 Xrotation Yrotation Zrotation
							End Site
							{
								OFFSET 0.000000 32.263779 0.000000
							}
						}
						JOINT HairA
						{
							OFFSET -7.081100 24.428299 23.196600
							CHANNELS 3 Xrotation Yrotation Zrotation
							End Site
							{
								OFFSET 0.000000 32.263779 0.000000
							}
						}
						JOINT Hat
						{
							OFFSET 16.728800 15.048294 -15.439601
							CHANNELS 3 Xrotation Yrotation Zrotation
							End Site
							{
								OFFSET 0.000000 32.263779 0.000000
							}
						}
					}
				}
				JOINT LeftShoulder
				{
					OFFSET 6.197800 13.665199 -4.064700
					CHANNELS 3 Xrotation Yrotation Zrotation
					JOINT LeftArm
					{
						OFFSET 7.778100 -0.187103 -1.709300
						CHANNELS 3 Xrotation Yrotation Zrotation
						JOINT LeftForeArm
						{
							OFFSET 22.049376 0.000000 0.000000
							CHANNELS 3 Xrotation Yrotation Zrotation
							JOINT LeftHand
							{
								OFFSET 23.009392 0.000000 0.000000
								CHANNELS 3 Xrotation Yrotation Zrotation
								JOINT LeftHandThumb1
								{
									OFFSET 3.507191 -2.063065 3.133727
									CHANNELS 3 Xrotation Yrotation Zrotation
									JOINT LeftHandThumb2
									{
										OFFSET 3.101337 -1.790558 1.790558
										CHANNELS 3 Xrotation Yrotation Zrotation
										JOINT LeftHandThumb3
										{
											OFFSET 3.058640 -1.765907 1.765906
											CHANNELS 3 Xrotation Yrotation Zrotation
											End Site
											{
												OFFSET -0.415260 3.926476 -0.049563
											}
										}
									}
								}
								JOINT LeftHandIndex1
								{
									OFFSET 11.334419 -0.901459 3.706815
									CHANNELS 3 Xrotation Yrotation Zrotation
									JOINT LeftHandIndex2
									{
										OFFSET 3.283112 0.000000 0.000000
										CHANNELS 3 Xrotation Yrotation Zrotation
										JOINT LeftHandIndex3
										{
											OFFSET 3.323853 0.000000 0.000000
											CHANNELS 3 Xrotation Yrotation Zrotation
											End Site
											{
												OFFSET -1.135597 3.097809 0.402452
											}
										}
									}
								}
								JOINT LeftHandMiddle1
								{
									OFFSET 11.335861 0.000000 0.000000
									CHANNELS 3 Xrotation Yrotation Zrotation
									JOINT LeftHandMiddle2
									{
										OFFSET 3.410492 0.000000 0.000000
										CHANNELS 3 Xrotation Yrotation Zrotation
										JOINT LeftHandMiddle3
										{
											OFFSET 3.312172 0.000000 0.000000
											CHANNELS 3 Xrotation Yrotation Zrotation
											End Site
											{
												OFFSET -1.150200 3.080154 0.400270
											}
										}
									}
								}
								JOINT LeftHandRing1
								{
									OFFSET 11.514786 -0.013176 -3.003090
									CHANNELS 3 Xrotation Yrotation Zrotation
									JOINT LeftHandRing2
									{
										OFFSET 3.053307 0.000000 0.000000
										CHANNELS 3 Xrotation Yrotation Zrotation
										JOINT LeftHandRing3
										{
											OFFSET 3.295807 0.000000 0.000000
											CHANNELS 3 Xrotation Yrotation Zrotation
											End Site
											{
												OFFSET -1.281006 3.013344 0.375733
											}
										}
									}
								}
								JOINT LeftHandPinky1
								{
									OFFSET 10.518692 -0.960396 -5.730441
									CHANNELS 3 Xrotation Yrotation Zrotation
									JOINT LeftHandPinky2
									{
										OFFSET 2.861649 0.000000 0.000000
										CHANNELS 3 Xrotation Yrotation Zrotation
										JOINT LeftHandPinky3
										{
											OFFSET 2.863380 0.000000 0.000000
											CHANNELS 3 Xrotation Yrotation Zrotation
											End Site
											{
												OFFSET -0.843597 2.711159 0.369971
											}
										}
									}
								}
							}
							JOINT LSleeve
							{
								OFFSET 6.676277 -0.344902 -1.011730
								CHANNELS 3 Xrotation Yrotation Zrotation
								End Site
								{
									OFFSET 0.000000 14.885353 0.000000
								}
							}
						}
					}
				}
				JOINT RightShoulder
				{
					OFFSET -6.197800 13.665199 -4.064700
					CHANNELS 3 Xrotation Yrotation Zrotation
					JOINT RightArm
					{
						OFFSET -7.778100 -0.187103 -1.709300
						CHANNELS 3 Xrotation Yrotation Zrotation
						JOINT RightForeArm
						{
							OFFSET -22.049376 0.000000 0.000000
							CHANNELS 3 Xrotation Yrotation Zrotation
							JOINT RightHand
							{
								OFFSET -23.009392 0.000000 0.000000
								CHANNELS 3 Xrotation Yrotation Zrotation
								JOINT RightHandThumb1
								{
									OFFSET -3.507191 -2.063065 3.133727
									CHANNELS 3 Xrotation Yrotation Zrotation
									JOINT RightHandThumb2
									{
										OFFSET -3.101337 -1.790558 1.790558
										CHANNELS 3 Xrotation Yrotation Zrotation
										JOINT RightHandThumb3
										{
											OFFSET -3.058640 -1.765907 1.765906
											CHANNELS 3 Xrotation Yrotation Zrotation
											End Site
											{
												OFFSET 0.415260 3.926476 -0.049563
											}
										}
									}
								}
								JOINT RightHandIndex1
								{
									OFFSET -11.334419 -0.901459 3.706815
									CHANNELS 3 Xrotation Yrotation Zrotation
									JOINT RightHandIndex2
									{
										OFFSET -3.283112 0.000000 0.000000
										CHANNELS 3 Xrotation Yrotation Zrotation
										JOINT RightHandIndex3
										{
											OFFSET -3.323853 0.000000 0.000000
											CHANNELS 3 Xrotation Yrotation Zrotation
											End Site
											{
												OFFSET 1.135597 3.097809 0.402452
											}
										}
									}
								}
								JOINT RightHandMiddle1
								{
									OFFSET -11.335861 0.000000 0.000000
									CHANNELS 3 Xrotation Yrotation Zrotation
									JOINT RightHandMiddle2
									{
										OFFSET -3.410492 0.000000 0.000000
										CHANNELS 3 Xrotation Yrotation Zrotation
										JOINT RightHandMiddle3
										{
											OFFSET -3.312172 0.000000 0.000000
											CHANNELS 3 Xrotation Yrotation Zrotation
											End Site
											{
												OFFSET 1.150200 3.080154 0.400270
											}
										}
									}
								}
								JOINT RightHandRing1
								{
									OFFSET -11.514786 -0.013176 -3.003090
									CHANNELS 3 Xrotation Yrotation Zrotation
									JOINT RightHandRing2
									{
										OFFSET -3.053307 0.000000 0.000000
										CHANNELS 3 Xrotation Yrotation Zrotation
										JOINT RightHandRing3
										{
											OFFSET -3.295807 0.000000 0.000000
											CHANNELS 3 Xrotation Yrotation Zrotation
											End Site
											{
												OFFSET 1.281006 3.013344 0.375733
											}
										}
									}
								}
								JOINT RightHandPinky1
								{
									OFFSET -10.518692 -0.960396 -5.730441
									CHANNELS 3 Xrotation Yrotation Zrotation
									JOINT RightHandPinky2
									{
										OFFSET -2.861649 0.000000 0.000000
										CHANNELS 3 Xrotation Yrotation Zrotation
										JOINT RightHandPinky3
										{
											OFFSET -2.863380 0.000000 0.000000
											CHANNELS 3 Xrotation Yrotation Zrotation
											End Site
											{
												OFFSET 0.843597 2.711159 0.369971
											}
										}
									}
								}
							}
							JOINT RSleeve
							{
								OFFSET -6.676277 -0.344902 -1.011730
								CHANNELS 3 Xrotation Yrotation Zrotation
								End Site
								{
									OFFSET 0.000000 14.885353 0.000000
								}
							}
						}
					}
				}
				JOINT Backpack
				{
					OFFSET 0.000000 -2.471497 36.677502
					CHANNELS 3 Xrotation Yrotation Zrotation
					End Site
					{
						OFFSET 0.000000 20.427315 0.000000
					}
				}
				JOINT Hood
				{
					OFFSET 0.000000 18.754097 -10.431000
					CHANNELS 3 Xrotation Yrotation Zrotation
					JOINT Hood1
					{
						OFFSET 0.000000 -5.011002 -7.685901
						CHANNELS 3 Xrotation Yrotation Zrotation
						End Site
						{
							OFFSET 0.000000 9.175140 0.000000
						}
					}
				}
				JOINT LHoodieString
				{
					OFFSET 5.250500 16.397697 3.089900
					CHANNELS 3 Xrotation Yrotation Zrotation
					JOINT LHoodieString1
					{
						OFFSET 0.257700 -6.364304 3.694600
						CHANNELS 3 Xrotation Yrotation Zrotation
						JOINT LHoodieString2
						{
							OFFSET 0.000000 -9.643799 2.679100
							CHANNELS 3 Xrotation Yrotation Zrotation
							End Site
							{
								OFFSET 0.000000 10.009018 0.000000
							}
						}
					}
				}
				JOINT RHoodieString
				{
					OFFSET -5.250500 16.397697 3.089900
					CHANNELS 3 Xrotation Yrotation Zrotation
					JOINT RHoodieString1
					{
						OFFSET -0.257700 -6.364304 3.694600
						CHANNELS 3 Xrotation Yrotation Zrotation
						JOINT RHoodieString2
						{
							OFFSET 0.000000 -9.643799 2.679100
							CHANNELS 3 Xrotation Yrotation Zrotation
							End Site
							{
								OFFSET 0.000000 10.009018 0.000000
							}
						}
					}
				}
			}
			JOINT LBackpack_Strap
			{
				OFFSET 15.223200 -7.719803 -6.610900
				CHANNELS 3 Xrotation Yrotation Zrotation
				End Site
				{
					OFFSET 0.000000 16.040596 0.000000
				}
			}
			JOINT RBackpack_Strap
			{
				OFFSET -15.223000 -7.719803 -6.610900
				CHANNELS 3 Xrotation Yrotation Zrotation
				End Site
				{
					OFFSET 0.000000 16.040596 0.000000
				}
			}
		}
	}
	JOINT BoyFacialAnim_Joint
	{
		OFFSET 1.000000 -82.208099 -1.550900
		CHANNELS 3 Xrotation Yrotation Zrotation
		End Site
		{
			OFFSET 0.000000 30.012791 0.000000
		}
	}
}
MOTION
Frames: 5
Frame Time: 0.033333
-0.597033 71.679924 0.189421 8.767053 -64.496821 11.422611 -0.000000 -0.000000 -0.000000 -51.464478 -7.454130 -5.277923 79.450721 1.817977 5.851598 -0.995521 0.243035 -2.803697 0.000001 0.000000 0.000000 0.000001 0.000000 0.000000 0.000001 0.000002 -0.000000 -36.412766 -20.651755 -6.276485 65.650474 9.860701 0.659396 -34.775399 -17.705129 -15.020539 0.000000 -0.000000 0.000000 0.000000 -0.000000 0.000000 -0.000001 -0.000000 -0.000000 14.396514 8.865227 1.955849 3.250443 2.428492 3.388202 3.085098 2.750379 3.354481 -2.963255 3.409190 5.266668 20.634382 24.868493 -2.463662 0.000001 0.000003 0.000000 0.000001 0.000003 0.000000 0.000001 0.000003 0.000000 0.638810 -5.475684 -6.833111 -48.617351 -3.984500 -46.239841 0.000767 -84.954030 0.000747 -135.084722 -17.969563 24.673328 4.709217 9.560362 3.111990 19.473194 -1.474915 7.636925 -0.000001 0.000001 -0.000001 -0.212818 3.933722 -36.747135 2.942136 5.078914 -60.144604 -0.000004 -0.000001 -0.000002 0.405924 5.507059 -52.453158 3.387145 5.308607 -65.057477 0.000000 -0.000000 0.000000 -0.074380 5.736776 -61.061427 4.055015 5.569508 -72.094901 -0.000005 -0.000004 -0.000001 -6.565569 4.545144 -72.425229 3.299624 5.267227 -64.107807 -0.000000 -0.000001 -0.000000 -0.000002 0.000003 -0.000002 3.879580 8.951763 -4.531420 -49.649984 48.908276 72.303413 0.000239 108.432586 -0.000228 -39.796978 -37.221222 -16.846556 8.377125 -4.904154 11.022013 21.620201 -18.183893 -18.379209 -0.000001 -0.000000 0.000001 -0.920036 1.683576 12.434979 0.748106 -2.533479 32.898289 -0.000000 -0.000001 0.000005 3.413039 -7.186280 51.650253 6.296806 -4.359554 110.634660 0.000001 0.000001 -0.000007 -3.349062 -2.600439 57.010585 5.440854 -4.590909 99.698154 -0.000001 0.000001 0.000002 -3.996465 -3.303953 64.593871 4.058868 -4.618670 82.610530 -0.000001 -0.000001 0.000000 -0.000002 -0.000001 -0.000000 -0.000001 -0.000002 -0.000001 -0.000001 -0.000002 -0.000001 -0.000001 -0.000002 -0.000001 -0.000001 -0.000002 -0.000001 -0.000001 -0.000002 0.000001 -0.000001 0.000003 -0.000001 -0.000001 -0.000002 -0.000001 -0.000001 -0.000002 0.000001 -0.000001 0.000003 -0.000001 0.000002 -0.000000 -0.000000 0.000002 -0.000000 -0.000000 -0.000000 -0.000000 -0.000000 
-3.782503 72.039673 0.191752 6.593587 -62.092334 8.142230 -0.000000 0.000000 -0.000000 -58.009282 4.334858 3.727550 69.325389 6.924843 2.200263 -3.786927 6.509135 -5.905890 -0.000000 -0.000004 0.000001 -0.000000 -0.000004 0.000001 -0.000001 0.000001 0.000001 -34.420537 -24.179727 -6.873391 66.695445 6.889592 2.739724 -31.132491 -16.578964 -15.609844 0.000001 -0.000000 0.000000 0.000001 -0.000000 0.000000 0.000001 -0.000000 0.000001 14.629953 7.657524 1.952829 3.107339 1.862017 3.415742 2.951049 2.191059 3.408338 -1.824117 3.278544 5.160319 18.417544 23.828264 -2.130358 -0.000001 -0.000001 0.000003 -0.000001 -0.000001 0.000003 -0.000001 -0.000001 0.000003 -0.470861 -5.138804 -6.109194 -47.904269 -5.139176 -45.547735 0.000004 -84.435434 -0.000013 -135.219905 -18.654850 23.206978 4.124011 6.667132 2.598533 20.103460 -0.082627 7.567412 0.000000 -0.000001 0.000001 -0.212816 3.933723 -36.747135 2.540685 4.827245 -55.497268 0.000001 0.000000 -0.000004 0.258942 5.244233 -49.826394 3.208128 5.221997 -63.106877 0.000001 0.000000 0.000000 0.035153 5.932934 -62.996508 3.642466 5.419562 -67.788323 0.000003 0.000001 0.000002 -6.518192 4.904132 -74.082404 2.877781 5.041576 -59.414975 -0.000002 -0.000002 -0.000002 0.000000 0.000001 0.000002 2.315824 8.765188 -2.040694 -47.457947 49.629299 70.641518 0.000084 107.175531 -0.000101 -38.236813 -34.842407 -13.975073 8.377124 -4.904153 11.022013 21.620199 -18.183895 -18.379207 0.000002 0.000000 0.000000 -0.920036 1.683576 12.434979 0.748106 -2.533479 32.898293 -0.000001 -0.000001 0.000005 3.413040 -7.186282 51.650249 6.296805 -4.359553 110.634667 0.000001 0.000001 -0.000000 -3.349060 -2.600439 57.010585 5.440857 -4.590911 99.698154 0.000001 -0.000001 0.000002 -3.996464 -3.303953 64.593878 4.058867 -4.618671 82.610523 0.000001 -0.000001 0.000000 0.000001 -0.000000 -0.000001 0.000001 0.000001 0.000000 0.000001 0.000001 0.000000 0.000001 0.000001 0.000000 0.000001 0.000001 0.000000 0.000001 0.000001 -0.000000 -0.000000 0.000001 -0.000001 0.000001 0.000001 0.000000 0.000001 0.000001 -0.000000 -0.000000 0.000001 -0.000001 -0.000000 0.000000 -0.000001 -0.000000 0.000000 -0.000001 -0.000000 0.000000 -0.000000 
-6.969240 72.152245 0.495230 4.307394 -60.575247 4.416926 0.000000 -0.000000 -0.000000 -58.676366 16.917296 10.334495 56.177889 8.267135 -1.409167 -6.265754 12.970767 -10.711860 -0.000001 -0.000000 -0.000002 -0.000001 -0.000000 -0.000002 0.000001 0.000002 0.000000 -36.100114 -26.241937 -9.983745 71.477267 2.451927 4.421327 -17.123233 -14.399306 -8.748951 0.000001 -0.000002 0.000000 0.000001 -0.000002 0.000000 0.000002 0.000000 0.000000 14.639744 6.793605 2.166588 2.964985 1.260142 3.338991 2.821835 1.570180 3.352338 -0.802749 3.033086 5.229738 17.166743 22.532478 -2.227154 -0.000000 0.000000 -0.000002 -0.000000 0.000000 -0.000002 -0.000000 0.000000 -0.000002 -2.056603 -4.773592 -5.402498 -46.810616 -4.936256 -45.688952 0.000434 -84.695958 0.000436 -133.868989 -18.890032 22.570930 3.488481 3.693397 2.047805 20.749935 1.353155 7.477695 0.000002 -0.000002 0.000002 -0.212816 3.933715 -36.747131 2.150034 4.534984 -50.713441 -0.000002 -0.000000 -0.000002 0.122356 4.967840 -47.122162 3.026937 5.126463 -61.097961 0.000002 0.000000 -0.000003 0.156396 6.132041 -64.991067 3.230650 5.233313 -63.354164 -0.000002 -0.000001 -0.000001 -6.454646 5.273963 -75.790709 2.464261 4.774012 -54.584242 -0.000001 0.000001 0.000002 -0.000000 0.000002 -0.000001 0.301080 8.267389 0.315201 -44.400136 51.037902 68.489981 0.000160 105.838877 -0.000164 -37.540840 -31.611335 -11.617695 8.377124 -4.904153 11.022012 21.620195 -18.183897 -18.379209 -0.000002 0.000001 0.000002 -0.920035 1.683576 12.434982 0.748106 -2.533477 32.898293 -0.000001 0.000000 0.000004 3.413039 -7.186283 51.650253 6.296806 -4.359555 110.634667 0.000002 0.000001 0.000002 -3.349060 -2.600440 57.010578 5.440854 -4.590909 99.698154 -0.000001 0.000000 0.000004 -3.996466 -3.303952 64.593871 4.058869 -4.618670 82.610537 -0.000001 -0.000001 -0.000002 0.000001 -0.000000 -0.000000 -0.000000 0.000000 -0.000000 -0.000000 0.000000 -0.000000 -0.000000 0.000000 -0.000000 -0.000000 0.000000 -0.000000 -0.000000 0.000000 -0.000000 -0.000000 -0.000001 0.000001 -0.000000 0.000000 -0.000000 -0.000000 0.000000 -0.000000 -0.000000 -0.000001 0.000001 -0.000001 0.000002 -0.000000 -0.000001 0.000002 -0.000000 0.000000 -0.000000 -0.000000 
-10.363894 71.516197 1.305870 0.879073 -60.178311 -0.583747 -0.000000 0.000001 0.000000 -56.384431 27.448112 13.419976 45.051685 8.172533 -3.713838 -7.355689 18.579424 -10.942856 -0.000000 0.000001 0.000002 -0.000000 0.000001 0.000002 0.000000 0.000001 0.000001 -38.704216 -25.668368 -13.169178 76.725332 0.211858 5.373838 1.731712 -10.123119 -2.481878 -0.000000 0.000000 0.000000 -0.000000 0.000000 0.000000 -0.000002 0.000001 0.000001 14.517944 6.380905 2.546238 2.974327 0.632150 3.156059 2.843649 0.903620 3.192390 -0.053826 2.866469 5.232257 16.053415 21.433149 -2.132609 -0.000000 -0.000001 -0.000000 -0.000000 -0.000001 -0.000000 -0.000000 -0.000001 -0.000000 -4.147704 -4.160628 -4.509550 -45.420352 -3.532141 -46.618862 -0.000695 -85.706723 -0.000764 -131.402717 -18.818213 22.871679 2.808533 0.704463 1.468269 21.397793 2.802475 7.368378 0.000001 -0.000001 0.000001 -0.212817 3.933722 -36.747131 1.782550 4.208579 -45.895545 0.000001 0.000000 -0.000002 0.000564 4.684929 -44.398036 2.847825 5.023815 -59.073609 0.000003 -0.000001 0.000000 0.287765 6.329598 -67.002749 2.831551 5.014059 -58.887528 0.000002 0.000001 -0.000002 -6.373950 5.646409 -77.513966 2.071975 4.470192 -49.719136 -0.000000 -0.000003 0.000001 -0.000002 -0.000000 0.000002 -2.205871 7.235383 2.206343 -41.448969 53.098679 66.854909 0.000255 104.301742 -0.000245 -37.787243 -27.842015 -9.799742 8.377124 -4.904153 11.022015 21.620195 -18.183893 -18.379209 -0.000004 -0.000000 0.000001 -0.920035 1.683576 12.434979 0.748104 -2.533479 32.898289 -0.000000 0.000001 0.000002 3.413039 -7.186280 51.650249 6.296805 -4.359552 110.634667 0.000001 0.000000 0.000005 -3.349061 -2.600440 57.010585 5.440855 -4.590912 99.698154 0.000001 0.000000 0.000004 -3.996467 -3.303949 64.593871 4.058869 -4.618671 82.610530 -0.000000 -0.000000 0.000004 -0.000002 0.000002 -0.000003 -0.000001 -0.000002 0.000001 -0.000001 -0.000002 0.000001 -0.000001 -0.000002 0.000001 -0.000001 -0.000002 0.000001 -0.000001 -0.000002 0.000001 -0.000001 0.000002 -0.000001 -0.000001 -0.000002 0.000001 -0.000001 -0.000002 0.000001 -0.000001 0.000002 -0.000001 0.000002 -0.000000 -0.000000 0.000002 -0.000000 -0.000000 -0.000000 0.000001 0.000000 
-14.065249 70.156990 2.482982 -4.536052 -60.393100 -7.002823 -0.000000 -0.000001 -0.000000 -56.200456 33.234375 15.392320 43.610833 8.865323 -4.386510 -13.442293 21.954701 2.788148 -0.000000 0.000000 -0.000001 -0.000000 0.000000 -0.000000 -0.000001 -0.000001 0.000002 -41.261402 -21.218968 -14.797212 85.682906 -0.529302 5.363622 7.228904 -7.206902 3.208836 0.000000 0.000000 0.000000 0.000000 0.000000 0.000000 -0.000002 -0.000000 -0.000000 14.512475 6.231238 2.708850 3.281856 0.069998 2.902688 3.159093 0.298846 2.970149 0.385127 2.974363 4.900243 14.165280 20.970933 -1.311543 0.000001 -0.000001 -0.000000 0.000001 -0.000001 -0.000000 0.000001 -0.000001 -0.000000 -6.707962 -3.200965 -3.222284 -44.138322 -1.937312 -48.289567 0.000543 -86.489033 0.000474 -128.749626 -18.484980 23.598199 2.104307 -2.188915 0.879413 22.022567 4.212815 7.243707 -0.000002 0.000001 -0.000000 -0.212816 3.933718 -36.747135 1.453302 3.863161 -41.219843 -0.000001 -0.000001 -0.000002 -0.101990 4.407433 -41.753537 2.677493 4.918152 -57.107861 0.000002 0.000000 0.000000 0.424761 6.518172 -68.957884 2.461578 4.772111 -54.552065 0.000001 -0.000002 -0.000001 -6.278012 6.007303 -79.189247 1.717181 4.144396 -44.997788 -0.000002 0.000000 0.000003 -0.000000 -0.000001 0.000003 -5.183557 5.580933 3.311970 -39.806202 55.430260 66.684455 -0.000131 102.433877 0.000125 -38.791971 -24.160391 -8.411228 8.377125 -4.904153 11.022013 21.620199 -18.183895 -18.379207 -0.000001 0.000001 0.000001 -0.920035 1.683577 12.434979 0.748104 -2.533482 32.898293 0.000001 -0.000000 0.000005 3.413039 -7.186281 51.650246 6.296803 -4.359554 110.634667 0.000001 0.000001 -0.000000 -3.349062 -2.600439 57.010582 5.440854 -4.590910 99.698154 0.000001 -0.000000 0.000006 -3.996465 -3.303952 64.593871 4.058868 -4.618672 82.610530 -0.000000 -0.000001 -0.000003 0.000003 -0.000000 -0.000002 0.000001 0.000005 -0.000001 0.000001 0.000005 -0.000001 0.000001 0.000005 -0.000001 0.000001 0.000005 -0.000001 0.000001 0.000005 -0.000001 0.000001 -0.000002 0.000000 0.000001 0.000005 -0.000001 0.000001 0.000005 -0.000001 0.000001 -0.000002 0.000000 0.000002 0.000002 -0.000000 0.000002 0.000002 -0.000000 -0.000000 -0.000001 -0.000000 
